<?xml version="1.0" standalone="no"?>
<!DOCTYPE svg PUBLIC "-//W3C//DTD SVG 20010904//EN"
 "http://www.w3.org/TR/2001/REC-SVG-20010904/DTD/svg10.dtd">
<svg version="1.0" xmlns="http://www.w3.org/2000/svg"
 width="700.000000pt" height="700.000000pt" viewBox="0 0 700.000000 700.000000"
 preserveAspectRatio="xMidYMid meet">
<metadata>
Created by potrace 1.11, written by Peter Selinger 2001-2013
</metadata>
<g transform="translate(0.000000,700.000000) scale(0.100000,-0.100000)"
fill="#000000" stroke="none">
<path d="M1247 6984 c-431 -78 -766 -439 -803 -865 -9 -109 -9 -5140 0 -5239
20 -214 113 -414 265 -573 137 -143 281 -226 481 -279 l85 -23 2644 0 2644 0
0 2825 c-1 1554 -2 2832 -2 2842 -1 15 -27 16 -267 17 -147 1 -270 3 -273 5
-3 2 -6 297 -6 655 l0 651 -2345 -1 c-1962 -1 -2358 -3 -2423 -15z m4111 -967
l2 -327 -787 -1 c-434 0 -877 0 -985 0 l-198 0 0 -1310 c0 -720 -3 -1309 -7
-1309 -5 0 -27 15 -50 33 -23 17 -171 124 -330 237 -158 113 -307 220 -331
237 l-43 33 -47 -32 c-26 -18 -197 -139 -380 -270 -183 -131 -335 -238 -337
-238 -3 0 -5 589 -5 1309 l0 1310 -267 3 -268 3 -50 27 c-114 62 -171 150
-179 276 -11 177 105 316 284 341 25 3 929 6 2010 6 l1965 0 3 -328z"/>
</g>
</svg>
